<?xml version="1.0" standalone="no"?>
<!DOCTYPE svg PUBLIC "-//W3C//DTD SVG 20010904//EN"
 "http://www.w3.org/TR/2001/REC-SVG-20010904/DTD/svg10.dtd">
<svg version="1.0" xmlns="http://www.w3.org/2000/svg"
 width="403.000000pt" height="404.000000pt" viewBox="0 0 403.000000 404.000000"
 preserveAspectRatio="xMidYMid meet">

<g transform="translate(0.000000,404.000000) scale(0.100000,-0.100000)"
fill="#000000" stroke="none">
<path d="M1805 4023 c-633 -78 -1146 -397 -1490 -926 -221 -340 -340 -811
-307 -1215 68 -835 598 -1515 1384 -1775 203 -68 393 -97 623 -97 319 0 601
64 880 200 586 285 991 825 1106 1476 33 185 33 483 0 669 -155 874 -839 1538
-1710 1659 -102 15 -399 20 -486 9z m445 -13 c374 -47 737 -201 1030 -437 96
-77 258 -245 333 -345 200 -266 325 -562 384 -903 23 -139 23 -471 0 -610
-149 -870 -779 -1507 -1652 -1672 -127 -24 -446 -29 -588 -9 -590 83 -1097
403 -1419 896 -512 783 -410 1812 246 2488 295 304 718 523 1126 581 41 6 86
13 100 15 57 8 362 5 440 -4z"/>
<path d="M2625 3223 c-241 -35 -405 -252 -365 -483 27 -155 96 -241 357 -443
285 -222 378 -340 378 -477 -1 -153 -109 -269 -280 -301 -137 -25 -272 54
-382 224 l-44 68 -37 -23 c-20 -12 -54 -32 -74 -45 l-38 -23 38 -61 c60 -99
171 -211 249 -251 155 -81 329 -85 481 -13 51 24 93 54 137 98 152 153 185
352 89 546 -52 104 -188 239 -419 414 -231 175 -278 236 -278 362 -1 138 98
228 249 228 102 0 161 -31 258 -135 l75 -80 69 53 70 54 -20 28 c-41 58 -131
147 -181 181 -90 59 -235 94 -332 79z"/>
<path d="M770 2185 l0 -895 435 0 435 0 0 85 0 85 -345 0 -345 0 0 810 0 810
-90 0 -90 0 0 -895z"/>
<path d="M1765 1001 c-7 -12 12 -24 25 -16 11 7 4 25 -10 25 -5 0 -11 -4 -15
-9z"/>
<path d="M1930 980 c0 -20 -5 -30 -15 -30 -8 0 -15 -4 -15 -10 0 -5 7 -10 15
-10 12 0 15 -14 15 -70 0 -40 4 -70 10 -70 6 0 10 30 10 69 0 46 4 71 13 75
10 5 10 7 0 12 -7 3 -13 19 -13 35 0 16 -4 29 -10 29 -5 0 -10 -13 -10 -30z"/>
<path d="M2650 980 c0 -20 -5 -30 -15 -30 -8 0 -15 -4 -15 -10 0 -5 7 -10 15
-10 12 0 15 -14 15 -70 0 -40 4 -70 10 -70 6 0 10 30 10 69 0 46 4 71 13 75
10 5 10 7 0 12 -7 3 -13 19 -13 35 0 16 -4 29 -10 29 -5 0 -10 -13 -10 -30z"/>
<path d="M805 925 c-65 -65 14 -168 96 -125 13 7 19 7 19 0 0 -5 5 -10 10 -10
6 0 10 33 10 80 0 47 -4 80 -10 80 -5 0 -10 -5 -10 -10 0 -7 -6 -7 -19 0 -33
17 -71 11 -96 -15z m103 -13 c31 -40 1 -102 -49 -102 -56 0 -78 73 -32 109 28
23 59 20 81 -7z"/>
<path d="M1060 868 c0 -45 4 -78 10 -78 6 0 10 24 10 54 0 63 7 86 25 86 8 0
17 4 20 10 3 5 -9 9 -30 8 l-35 -1 0 -79z"/>
<path d="M1251 924 c-28 -36 -27 -79 4 -109 28 -29 61 -32 93 -9 22 15 22 14
22 -25 0 -23 5 -41 10 -41 6 0 10 42 10 105 0 63 -4 105 -10 105 -5 0 -10 -5
-10 -10 0 -7 -6 -7 -19 0 -36 19 -78 12 -100 -16z m93 -5 c46 -36 25 -109 -32
-109 -81 0 -82 119 -1 129 4 1 18 -8 33 -20z"/>
<path d="M1510 890 c0 -69 21 -100 68 -100 46 0 62 27 61 101 l-2 64 -7 -61
c-8 -74 -14 -84 -49 -84 -40 0 -51 17 -51 82 0 32 -4 58 -10 58 -6 0 -10 -27
-10 -60z"/>
<path d="M1770 870 c0 -47 4 -80 10 -80 6 0 10 33 10 80 0 47 -4 80 -10 80 -6
0 -10 -33 -10 -80z"/>
<path d="M2119 940 c-29 -17 -43 -66 -29 -100 14 -35 37 -50 73 -50 28 0 76
34 65 46 -5 4 -16 0 -26 -9 -26 -24 -68 -21 -86 5 -9 12 -16 26 -16 30 0 5 32
8 70 8 61 0 70 2 70 18 0 45 -77 78 -121 52z m89 -22 c24 -20 11 -28 -43 -28
-59 0 -68 10 -33 34 22 16 51 13 76 -6z"/>
<path d="M2389 937 c-20 -15 -39 -51 -39 -72 0 -9 13 -30 29 -46 35 -35 78
-38 112 -8 21 18 21 20 4 13 -64 -23 -110 -12 -121 30 -14 56 45 98 99 71 35
-18 51 -10 23 11 -24 17 -85 18 -107 1z"/>
<path d="M2811 889 c-1 -74 14 -99 62 -99 46 0 67 32 67 100 0 33 -4 60 -10
60 -6 0 -10 -26 -10 -58 0 -65 -11 -82 -51 -82 -35 0 -41 10 -49 84 l-7 61 -2
-66z"/>
<path d="M3060 868 c0 -45 4 -78 10 -78 6 0 10 24 10 54 0 63 7 86 25 86 8 0
17 4 20 10 3 5 -9 9 -30 8 l-35 -1 0 -79z"/>
<path d="M3251 924 c-28 -36 -27 -79 4 -109 26 -27 72 -33 94 -12 11 10 14 10
18 0 13 -35 23 -5 23 67 0 47 -4 80 -10 80 -5 0 -10 -5 -10 -10 0 -7 -6 -7
-19 0 -36 19 -78 12 -100 -16z m93 -5 c46 -36 25 -109 -32 -109 -81 0 -82 119
-1 129 4 1 18 -8 33 -20z"/>
</g>
</svg>
