<?xml version="1.0" standalone="no"?>
<!DOCTYPE svg PUBLIC "-//W3C//DTD SVG 20010904//EN"
 "http://www.w3.org/TR/2001/REC-SVG-20010904/DTD/svg10.dtd">
<svg version="1.0" xmlns="http://www.w3.org/2000/svg"
 width="4236.000000pt" height="4236.000000pt" viewBox="0 0 4236.000000 4236.000000"
 preserveAspectRatio="xMidYMid meet">

<g transform="translate(0.000000,4236.000000) scale(0.100000,-0.100000)"
fill="#000000" stroke="none">
<path d="M20460 42344 c-36 -2 -173 -8 -305 -14 -2476 -111 -4989 -685 -7275
-1663 -695 -297 -1423 -656 -2070 -1020 -1264 -710 -2475 -1567 -3565 -2522
-675 -591 -1419 -1335 -2010 -2010 -1466 -1674 -2662 -3576 -3542 -5635 -921
-2152 -1475 -4464 -1638 -6830 -36 -521 -40 -684 -40 -1470 0 -786 4 -949 40
-1470 175 -2537 785 -4953 1840 -7290 116 -256 464 -962 600 -1215 767 -1428
1687 -2757 2740 -3960 591 -675 1335 -1419 2010 -2010 1674 -1466 3576 -2662
5635 -3542 2152 -921 4464 -1475 6830 -1638 521 -36 684 -40 1470 -40 786 0
949 4 1470 40 2537 175 4953 785 7290 1840 256 116 962 464 1215 600 1428 767
2758 1687 3960 2740 675 591 1419 1335 2010 2010 1466 1674 2662 3576 3542
5635 1062 2482 1639 5192 1682 7892 15 997 -24 1876 -125 2773 -250 2233 -827
4332 -1759 6395 -116 256 -464 962 -600 1215 -767 1428 -1687 2757 -2740 3960
-591 675 -1335 1419 -2010 2010 -1674 1466 -3576 2662 -5635 3542 -2174 930
-4516 1487 -6905 1643 -432 28 -574 32 -1285 34 -421 2 -794 2 -830 0z
m-11032 -18301 l2 -8563 3640 0 3640 0 0 -915 0 -915 -4600 0 -4600 0 0 9473
c0 5211 3 9477 7 9480 3 4 434 6 957 5 l951 -3 3 -8562z m15211 2195 c409
-402 938 -856 1671 -1432 225 -176 374 -291 975 -750 1590 -1212 2711 -2308
3210 -3139 403 -669 553 -1358 449 -2067 -105 -721 -487 -1421 -1028 -1887
-890 -765 -2190 -1075 -3269 -779 -929 256 -1796 974 -2573 2131 -156 232
-273 421 -414 670 -62 110 -116 203 -120 208 -7 8 -1595 -943 -1598 -958 -3
-13 127 -244 281 -500 624 -1039 1302 -1838 2027 -2386 264 -200 526 -360 860
-527 611 -306 1219 -481 1935 -558 203 -21 789 -30 1011 -15 1194 82 2189 478
3095 1232 164 136 578 551 713 714 410 495 688 973 885 1522 270 756 341 1633
195 2433 -146 804 -531 1647 -1091 2388 -258 342 -462 572 -858 967 -480 481
-936 880 -1595 1400 -168 132 -388 298 -1350 1016 -239 179 -495 371 -569 427
l-133 102 4156 0 4156 0 0 -6400 0 -6400 -7115 0 -7115 0 0 6400 0 6400 1496
0 1497 0 216 -212z m-6407 -15480 c46 -35 68 -84 68 -151 0 -97 -74 -167 -177
-167 -177 0 -233 235 -79 332 46 29 141 21 188 -14z m1678 -343 l0 -305 165 0
165 0 0 -90 0 -90 -165 0 -165 0 0 -740 0 -740 -110 0 -110 0 0 740 0 740
-140 0 -140 0 0 90 0 90 140 0 140 0 0 305 0 305 110 0 110 0 0 -305z m7580 0
l0 -305 165 0 165 0 0 -90 0 -90 -165 0 -165 0 0 -740 0 -740 -110 0 -110 0 0
740 0 740 -140 0 -140 0 0 90 0 90 140 0 140 0 0 305 0 305 110 0 110 0 0
-305z m-18882 -280 c152 -30 336 -144 427 -264 l40 -52 3 145 3 146 104 0 105
0 0 -830 0 -830 -105 0 -105 0 0 136 0 137 -66 -67 c-160 -161 -323 -234 -545
-243 -199 -9 -346 30 -489 127 -174 118 -304 296 -360 492 -28 95 -38 298 -21
404 56 343 337 637 672 703 73 15 254 12 337 -4z m2679 -5 c31 -11 61 -24 66
-29 7 -7 -23 -62 -99 -179 -1 -1 -28 5 -61 14 -55 15 -64 15 -114 1 -143 -42
-237 -160 -289 -360 -28 -111 -40 -340 -40 -759 l0 -368 -110 0 -110 0 0 830
0 830 110 0 110 0 0 -116 0 -115 51 63 c78 97 177 171 269 199 50 15 159 10
217 -11z m2041 4 c152 -30 316 -131 424 -261 l43 -52 3 145 3 144 104 0 105 0
0 -1135 0 -1135 -105 0 -105 0 0 443 0 443 -77 -76 c-174 -169 -345 -240 -578
-240 -225 0 -394 67 -559 221 -135 126 -228 292 -262 467 -19 98 -18 284 2
379 40 195 161 383 327 509 81 61 224 129 312 147 94 20 267 21 363 1z m9014
2 c264 -51 484 -231 595 -486 37 -86 61 -191 70 -302 l6 -78 -735 0 -736 0 5
-47 c26 -288 191 -509 438 -585 97 -31 240 -30 350 1 168 47 280 131 384 286
29 44 55 82 56 84 2 1 44 -18 94 -45 l91 -48 -31 -55 c-107 -190 -251 -325
-426 -396 -199 -80 -510 -73 -704 17 -311 145 -513 529 -470 891 15 130 35
199 85 302 121 246 325 412 565 460 89 18 273 18 363 1z m3003 -15 c169 -45
341 -149 427 -258 78 -101 78 -95 -5 -146 -39 -24 -77 -47 -83 -50 -6 -4 -49
31 -95 76 -145 142 -287 199 -504 200 -143 1 -212 -15 -335 -75 -120 -58 -231
-170 -288 -289 -77 -160 -90 -329 -38 -493 119 -375 516 -564 906 -431 99 34
182 87 269 173 l75 73 83 -56 84 -56 -30 -42 c-93 -135 -277 -257 -466 -309
-69 -19 -105 -22 -270 -22 -179 0 -195 2 -280 28 -240 73 -430 233 -535 451
-62 128 -82 217 -82 370 0 156 25 265 92 400 108 218 294 374 527 445 112 34
158 39 318 36 113 -3 170 -9 230 -25z m7032 9 c31 -11 61 -24 66 -29 7 -7 -23
-62 -99 -179 -1 -1 -28 5 -61 14 -55 15 -64 15 -114 1 -143 -42 -237 -160
-289 -360 -28 -111 -40 -340 -40 -759 l0 -368 -110 0 -110 0 0 830 0 830 110
0 110 0 0 -116 0 -115 51 63 c78 97 177 171 269 199 50 15 159 10 217 -11z
m2041 5 c152 -30 336 -144 427 -264 l40 -52 3 145 3 146 104 0 105 0 0 -830 0
-830 -105 0 -105 0 0 136 0 137 -66 -67 c-160 -161 -323 -234 -545 -243 -199
-9 -346 30 -489 127 -174 118 -304 296 -360 492 -28 95 -38 298 -21 404 56
343 337 637 672 703 73 15 254 12 337 -4z m-18895 -557 c5 -578 7 -610 62
-718 33 -64 92 -130 153 -169 152 -97 381 -102 545 -13 61 33 146 124 176 188
50 105 53 143 58 712 l5 532 110 0 110 0 -5 -512 c-4 -505 -9 -578 -42 -713
-58 -232 -252 -415 -488 -460 -101 -19 -277 -19 -375 0 -162 33 -318 137 -400
268 -113 182 -131 323 -132 1015 l0 402 109 0 109 0 5 -532z m2717 -298 l0
-830 -110 0 -110 0 0 830 0 830 110 0 110 0 0 -830z m10933 298 c5 -578 7
-610 62 -718 33 -64 92 -130 153 -169 152 -97 381 -102 545 -13 61 33 146 124
176 188 50 105 53 143 58 712 l5 532 110 0 110 0 -5 -512 c-4 -505 -9 -578
-42 -713 -58 -232 -252 -415 -488 -460 -101 -19 -277 -19 -375 0 -162 33 -318
137 -400 268 -113 182 -131 323 -132 1015 l0 402 109 0 109 0 5 -532z"/>
<path d="M8335 9936 c-287 -56 -486 -277 -525 -584 -34 -263 126 -558 365
-672 102 -49 169 -64 275 -64 109 0 173 15 289 71 235 112 361 340 349 627 -8
183 -68 322 -190 446 -145 147 -362 215 -563 176z"/>
<path d="M13062 9940 c-86 -16 -203 -67 -273 -120 -112 -84 -180 -182 -231
-334 -27 -78 -31 -106 -31 -196 -1 -126 17 -200 76 -320 85 -175 260 -309 452
-346 238 -46 507 66 642 268 172 258 144 628 -64 848 -83 88 -167 144 -265
175 -87 28 -226 39 -306 25z"/>
<path d="M22068 9940 c-225 -41 -384 -173 -467 -390 -17 -44 -31 -84 -31 -90
0 -7 194 -10 600 -10 330 0 600 3 600 7 0 5 -12 43 -26 85 -61 183 -195 313
-387 373 -86 28 -215 39 -289 25z"/>
<path d="M34145 9936 c-287 -56 -486 -277 -525 -584 -34 -263 126 -558 365
-672 102 -49 169 -64 275 -64 109 0 173 15 289 71 235 112 361 340 349 627 -8
183 -68 322 -190 446 -145 147 -362 215 -563 176z"/>
</g>
</svg>
