<?xml version="1.0" standalone="no"?>
<!DOCTYPE svg PUBLIC "-//W3C//DTD SVG 20010904//EN"
 "http://www.w3.org/TR/2001/REC-SVG-20010904/DTD/svg10.dtd">
<svg version="1.0" xmlns="http://www.w3.org/2000/svg"
 width="1080.000000pt" height="1080.000000pt" viewBox="0 0 1080.000000 1080.000000"
 preserveAspectRatio="xMidYMid meet">

<g transform="translate(0.000000,1080.000000) scale(0.100000,-0.100000)"
fill="#000000" stroke="none">
<path d="M5180 6049 c-72 -33 -111 -68 -137 -127 -34 -74 -30 -186 10 -254 25
-43 107 -121 192 -183 136 -100 228 -205 240 -277 23 -126 -127 -250 -262
-216 -49 12 -119 69 -164 134 l-30 44 -32 -16 c-56 -29 -58 -32 -35 -72 117
-207 381 -261 543 -111 60 55 89 126 89 214 0 135 -65 223 -288 391 -140 105
-178 151 -184 226 -3 44 0 59 20 88 30 45 81 70 141 70 61 0 99 -19 163 -82
l52 -50 42 31 42 30 -58 62 c-106 111 -234 148 -344 98z"/>
<path d="M9525 6064 c-54 -15 -165 -58 -201 -79 -100 -59 -206 -193 -247 -314
-31 -90 -35 -256 -8 -360 47 -189 213 -355 402 -402 114 -29 282 -23 380 13
125 46 269 179 320 293 32 72 59 193 59 262 0 83 -33 211 -73 288 -37 70 -158
195 -219 226 -107 54 -170 71 -283 74 -60 2 -119 1 -130 -1z m266 -123 c67
-22 165 -86 212 -141 138 -161 157 -396 47 -582 -49 -82 -114 -141 -205 -184
-190 -90 -389 -56 -546 93 -198 189 -198 506 -1 700 63 62 172 119 252 132 69
12 168 4 241 -18z"/>
<path d="M802 5478 l3 -573 273 -3 272 -2 0 60 0 60 -215 0 -215 0 0 515 0
515 -60 0 -60 0 2 -572z"/>
<path d="M1860 5813 c-257 -541 -420 -896 -414 -904 8 -14 102 -11 115 4 6 6
48 91 94 187 l82 175 247 0 248 0 81 -175 c46 -96 86 -181 90 -187 9 -15 113
-18 121 -4 3 5 -21 64 -53 132 -32 68 -69 149 -83 179 -14 30 -73 156 -131
280 -57 124 -138 297 -179 385 -42 91 -81 161 -90 163 -11 2 -47 -65 -128
-235z m304 -401 l7 -22 -185 0 c-106 0 -186 4 -186 9 0 5 30 72 66 148 37 76
78 163 92 193 l25 55 87 -181 c48 -99 91 -190 94 -202z"/>
<path d="M2710 5475 l0 -575 44 0 c83 0 76 -38 76 434 l1 421 27 -31 c15 -17
84 -95 153 -175 69 -79 163 -187 209 -239 46 -52 141 -161 212 -243 71 -81
138 -152 149 -157 19 -11 19 0 19 565 l0 575 -55 0 -55 0 0 -426 c0 -258 -4
-424 -9 -422 -10 3 -467 522 -697 790 -27 31 -55 57 -61 57 -10 1 -13 -120
-13 -574z"/>
<path d="M3872 5479 l3 -574 170 -3 c417 -7 570 42 695 223 61 88 83 166 88
311 4 112 1 142 -17 209 -12 44 -34 102 -49 130 -40 75 -138 167 -216 204
-106 51 -175 62 -439 68 l-237 6 2 -574z m529 424 c85 -25 145 -60 196 -116
87 -94 118 -195 111 -358 -6 -141 -30 -201 -112 -283 -103 -104 -178 -126
-443 -126 l-173 0 0 448 c0 247 3 452 8 456 4 5 84 6 177 3 125 -4 187 -10
236 -24z"/>
<path d="M5730 5990 l0 -50 130 0 130 0 0 -515 0 -515 55 0 55 0 0 515 0 515
120 0 120 0 0 50 0 50 -305 0 -305 0 0 -50z"/>
<path d="M6532 5593 c4 -506 3 -498 83 -589 29 -34 64 -60 107 -80 58 -26 72
-29 178 -29 142 0 195 20 267 99 95 105 103 159 103 667 l0 379 -49 0 -50 0
-3 -422 -3 -423 -26 -55 c-47 -100 -130 -154 -239 -153 -104 1 -188 47 -238
132 l-27 46 -3 438 -3 437 -50 0 -50 0 3 -447z"/>
<path d="M7560 5475 l0 -568 258 6 c305 6 359 16 467 89 95 64 166 167 196
288 28 110 23 301 -10 393 -33 93 -104 191 -174 241 -131 92 -189 105 -504
113 l-233 6 0 -568z m490 445 c83 -18 185 -76 233 -131 24 -27 58 -84 77 -126
33 -75 35 -82 35 -203 0 -123 0 -126 -36 -201 -47 -97 -97 -153 -172 -191 -90
-45 -169 -58 -364 -58 l-173 0 0 458 c0 252 3 462 8 466 10 12 327 0 392 -14z"/>
<path d="M8720 5475 l0 -565 55 0 55 0 0 565 0 565 -55 0 -55 0 0 -565z"/>
<path d="M6784 4746 c-15 -12 -17 -18 -8 -33 15 -24 58 -24 62 0 4 18 -14 47
-27 47 -4 0 -16 -6 -27 -14z"/>
<path d="M7110 4680 c0 -57 -1 -60 -25 -60 -32 0 -34 -27 -2 -32 21 -3 22 -6
25 -145 2 -135 4 -143 22 -143 19 0 20 7 20 139 0 148 1 151 51 151 33 0 22
28 -13 32 -33 3 -33 4 -36 61 -3 49 -6 57 -22 57 -18 0 -20 -7 -20 -60z"/>
<path d="M8587 4733 c-4 -3 -7 -30 -7 -60 0 -50 -1 -53 -25 -53 -16 0 -25 -6
-25 -15 0 -9 9 -15 25 -15 l25 0 0 -145 0 -145 25 0 25 0 0 145 0 145 30 0
c20 0 30 5 30 15 0 10 -10 15 -30 15 l-30 0 0 60 c0 52 -3 60 -18 60 -10 0
-22 -3 -25 -7z"/>
<path d="M4847 4607 c-70 -43 -99 -118 -76 -196 15 -52 75 -107 124 -117 42
-7 106 9 125 31 17 21 30 19 30 -5 0 -13 7 -20 20 -20 19 0 20 7 20 160 0 140
-2 160 -16 160 -9 0 -18 -9 -21 -20 -5 -19 -6 -19 -47 5 -54 32 -109 32 -159
2z m164 -56 c35 -35 39 -44 39 -90 0 -44 -5 -56 -33 -87 -63 -69 -156 -54
-198 33 -43 89 15 182 115 183 32 0 45 -7 77 -39z"/>
<path d="M5407 4610 c-30 -24 -37 -25 -37 -5 0 8 -9 15 -20 15 -19 0 -20 -7
-20 -160 0 -149 1 -160 19 -160 16 0 19 11 23 108 6 128 22 167 71 180 39 10
50 42 14 42 -13 0 -36 -9 -50 -20z"/>
<path d="M5775 4616 c-145 -67 -117 -298 39 -321 41 -7 66 1 149 43 4 2 7 -33
7 -78 0 -72 2 -81 18 -78 15 3 17 23 20 221 2 212 2 217 -18 217 -13 0 -20 -7
-20 -20 0 -25 -5 -25 -42 2 -38 26 -112 33 -153 14z m126 -42 c36 -18 73 -93
64 -127 -16 -56 -30 -78 -60 -97 -89 -55 -194 19 -182 129 10 89 99 136 178
95z"/>
<path d="M7525 4616 c-94 -42 -125 -177 -60 -261 32 -43 51 -54 109 -61 56 -8
123 22 149 66 16 27 17 31 2 36 -10 4 -25 -4 -40 -20 -65 -70 -158 -58 -201
26 -28 54 -19 58 132 58 l137 0 -6 37 c-16 98 -132 160 -222 119z m125 -41
c31 -16 50 -43 50 -69 0 -14 -17 -16 -110 -16 -118 0 -122 2 -93 50 29 49 96
65 153 35z"/>
<path d="M8085 4611 c-54 -25 -81 -57 -96 -111 -39 -151 139 -267 272 -177 18
12 34 28 37 34 8 25 -26 24 -63 -1 -79 -54 -181 -16 -206 77 -14 53 17 118 68
142 46 22 114 15 155 -15 38 -28 62 -13 32 21 -44 50 -129 62 -199 30z"/>
<path d="M9501 4605 c-30 -26 -31 -26 -31 -6 0 14 -6 21 -20 21 -19 0 -20 -7
-20 -160 0 -150 1 -160 19 -160 17 0 19 10 22 114 5 129 21 166 75 176 17 3
29 12 29 20 0 25 -41 22 -74 -5z"/>
<path d="M9875 4616 c-112 -49 -135 -198 -44 -281 61 -55 151 -57 207 -5 l22
21 0 -26 c0 -20 5 -25 25 -25 l25 0 0 160 0 160 -25 0 c-21 0 -25 -5 -25 -27
0 -16 -4 -23 -8 -17 -15 24 -78 54 -112 54 -19 -1 -49 -7 -65 -14z m125 -41
c39 -20 60 -63 60 -120 0 -37 -6 -52 -33 -81 -26 -29 -42 -37 -80 -41 -44 -5
-49 -3 -87 35 -35 35 -40 45 -40 86 0 26 7 60 15 76 29 55 105 76 165 45z"/>
<path d="M6260 4513 c0 -85 5 -117 20 -151 24 -54 72 -77 139 -68 90 12 126
84 119 241 -3 74 -5 80 -25 83 -23 3 -23 2 -23 -116 l0 -120 -31 -26 c-32 -27
-62 -32 -103 -16 -43 16 -56 57 -56 175 0 98 -1 105 -20 105 -19 0 -20 -7 -20
-107z"/>
<path d="M6787 4613 c-4 -3 -7 -75 -7 -160 l0 -153 25 0 25 0 0 160 c0 148 -1
160 -18 160 -10 0 -22 -3 -25 -7z"/>
<path d="M8910 4508 c0 -132 14 -173 70 -200 64 -33 141 -14 184 45 17 22 21
47 24 147 l4 120 -26 0 -26 0 0 -116 c0 -114 0 -116 -29 -145 -20 -20 -39 -29
-61 -29 -78 0 -100 41 -100 185 0 98 -1 105 -20 105 -19 0 -20 -7 -20 -112z"/>
</g>
</svg>
